<?xml version="1.0" encoding="UTF-8" standalone="no"?>
<svg
   viewBox="0 0 144 36"
   width="100%"
   height="100%"
   version="1.1"
   id="svg4"
   sodipodi:docname="woodfine-logo_V1.svg"
   inkscape:export-filename="/Users/Office/Desktop/woodfine-logo_V2.pdf"
   inkscape:export-xdpi="96"
   inkscape:export-ydpi="96"
   inkscape:version="1.4.3 (0d15f750, 2025-12-25)"
   xmlns:inkscape="http://www.inkscape.org/namespaces/inkscape"
   xmlns:sodipodi="http://sodipodi.sourceforge.net/DTD/sodipodi-0.dtd"
   xmlns="http://www.w3.org/2000/svg"
   xmlns:svg="http://www.w3.org/2000/svg">
  <defs
     id="defs4" />
  <sodipodi:namedview
     id="namedview4"
     pagecolor="#ffffff"
     bordercolor="#000000"
     borderopacity="0.25"
     inkscape:showpageshadow="2"
     inkscape:pageopacity="0.0"
     inkscape:pagecheckerboard="0"
     inkscape:deskcolor="#d1d1d1"
     inkscape:zoom="2"
     inkscape:cx="72"
     inkscape:cy="-21.25"
     inkscape:window-width="1473"
     inkscape:window-height="778"
     inkscape:window-x="0"
     inkscape:window-y="23"
     inkscape:window-maximized="0"
     inkscape:current-layer="svg4" />
  <style
     id="style1">
    .institutional-fill { fill: #111827; }
  </style>
  <g
     class="institutional-fill"
     fill-rule="evenodd"
     id="g4">
    <path
       d="M 16.069 29.8287 L 16.069 31.0989 L 26.233 31.0989 L 26.233 29.8287 Z"
       id="path1" />
    <path
       d="M 118.051 29.8287 L 118.051 31.0989 L 128.216 31.0989 L 128.216 29.8287 Z"
       id="path2" />
    <path
       d="M 33.1631 29.8204 C 32.967 29.5952 32.6824 29.4671 32.3157 29.4671 C 31.5695 29.4671 31.0194 30.0515 31.0194 30.8551 C 31.0194 31.6591 31.5695 32.2435 32.284 32.2435 C 32.6824 32.2435 33.0049 32.073 33.2072 31.7806 L 34.0293 32.3712 C 33.6563 32.8827 33.0239 33.12 32.4105 33.12 C 31.0131 33.12 29.995 32.2373 29.995 30.8551 C 29.995 29.4733 31.0131 28.5906 32.4105 28.5906 C 32.91 28.5906 33.5424 28.7549 33.9218 29.2237 L 33.1631 29.8204 Z M 37.745 28.7002 L 38.5608 28.7002 L 40.5084 33.0104 L 39.3955 33.0104 L 39.0096 32.0973 L 37.2708 32.0973 L 36.8976 33.0104 L 35.81 33.0104 L 37.745 28.7002 Z M 38.1244 29.9543 L 37.5807 31.2937 L 38.6746 31.2937 L 38.1244 29.9543 Z M 42.4662 28.7002 L 44.1293 28.7002 C 45.0589 28.7002 45.8303 28.9864 45.8303 30.0091 C 45.8303 31.0198 45.1157 31.33 44.1736 31.33 L 43.4527 31.33 L 43.4527 33.0104 L 42.4662 33.0104 L 42.4662 28.7002 Z M 43.4527 30.5264 L 44.1103 30.5264 C 44.4582 30.5264 44.8058 30.4107 44.8058 30.0091 C 44.8058 29.5647 44.338 29.5037 43.9586 29.5037 L 43.4527 29.5037 L 43.4527 30.5264 Z M 48.3257 28.7002 L 49.3121 28.7002 L 49.3121 33.0104 L 48.3257 33.0104 L 48.3257 28.7002 Z M 52.8391 29.5404 L 51.5618 29.5404 L 51.5618 28.7002 L 55.1029 28.7002 L 55.1029 29.5404 L 53.8255 29.5404 L 53.8255 33.0104 L 52.8391 33.0104 L 52.8391 29.5404 Z M 58.2563 28.7002 L 59.072 28.7002 L 61.0197 33.0104 L 59.9067 33.0104 L 59.5208 32.0973 L 57.782 32.0973 L 57.4089 33.0104 L 56.3213 33.0104 L 58.2563 28.7002 Z M 58.6356 29.9543 L 58.0919 31.2937 L 59.1858 31.2937 L 58.6356 29.9543 Z M 62.8889 28.7002 L 63.8753 28.7002 L 63.8753 32.1336 L 65.7028 32.1336 L 65.7028 33.0104 L 62.8889 33.0104 L 62.8889 28.7002 Z M 71.6435 28.7002 L 73.3064 28.7002 C 74.236 28.7002 75.0074 28.9864 75.0074 30.0091 C 75.0074 31.0198 74.2928 31.33 73.3506 31.33 L 72.6299 31.33 L 72.6299 33.0104 L 71.6435 33.0104 L 71.6435 28.7002 Z M 72.6299 30.5264 L 73.2876 30.5264 C 73.6351 30.5264 73.983 30.4107 73.983 30.0091 C 73.983 29.5647 73.5153 29.5037 73.1356 29.5037 L 72.6299 29.5037 L 72.6299 30.5264 Z M 77.2627 28.7002 L 78.9952 28.7002 C 79.9121 28.7002 80.6834 29.0045 80.6834 30.0091 C 80.6834 30.6117 80.3486 31.0804 79.7162 31.19 L 80.8543 33.0104 L 79.6717 33.0104 L 78.736 31.2876 L 78.2491 31.2876 L 78.2491 33.0104 L 77.2627 33.0104 L 77.2627 28.7002 Z M 78.2491 30.484 L 78.8308 30.484 C 79.1914 30.484 79.6591 30.4717 79.6591 30.0029 C 79.6591 29.5708 79.2544 29.5037 78.8942 29.5037 L 78.2491 29.5037 L 78.2491 30.484 Z M 85.0444 28.5906 C 86.442 28.5906 87.4599 29.4733 87.4599 30.8551 C 87.4599 32.2373 86.442 33.12 85.0444 33.12 C 83.6468 33.12 82.6289 32.2373 82.6289 30.8551 C 82.6289 29.4733 83.6468 28.5906 85.0444 28.5906 Z M 85.0444 32.2435 C 85.8853 32.2435 86.4355 31.6591 86.4355 30.8551 C 86.4355 30.0515 85.8853 29.4671 85.0444 29.4671 C 84.2035 29.4671 83.6533 30.0515 83.6533 30.8551 C 83.6533 31.6591 84.2035 32.2435 85.0444 32.2435 Z M 91.8267 31.5676 C 91.8267 32.3651 91.6117 33.12 90.3976 33.12 C 89.6895 33.12 89.1708 32.8033 89.0257 32.1154 L 89.9299 31.9025 C 89.9552 32.1093 90.1576 32.2798 90.3723 32.2798 C 90.8341 32.2798 90.8403 31.7867 90.8403 31.4642 L 90.8403 28.7002 L 91.8267 28.7002 L 91.8267 31.5676 Z M 94.6007 28.7002 L 97.6421 28.7002 L 97.6421 29.5767 L 95.5871 29.5767 L 95.5871 30.3806 L 97.5284 30.3806 L 97.5284 31.2571 L 95.5871 31.2571 L 95.5871 32.1336 L 97.7558 32.1336 L 97.7558 33.0104 L 94.6007 33.0104 L 94.6007 28.7002 Z M 103.11 29.8204 C 102.913 29.5952 102.629 29.4671 102.262 29.4671 C 101.516 29.4671 100.966 30.0515 100.966 30.8551 C 100.966 31.6591 101.516 32.2435 102.231 32.2435 C 102.629 32.2435 102.951 32.073 103.154 31.7806 L 103.976 32.3712 C 103.603 32.8827 102.97 33.12 102.357 33.12 C 100.96 33.12 99.9416 32.2373 99.9416 30.8551 C 99.9416 29.4733 100.96 28.5906 102.357 28.5906 C 102.857 28.5906 103.489 28.7549 103.868 29.2237 L 103.11 29.8204 Z M 107.236 29.5404 L 105.959 29.5404 L 105.959 28.7002 L 109.5 28.7002 L 109.5 29.5404 L 108.223 29.5404 L 108.223 33.0104 L 107.236 33.0104 L 107.236 29.5404 Z M 113.672 29.7533 C 113.514 29.5585 113.198 29.4671 112.957 29.4671 C 112.679 29.4671 112.293 29.589 112.293 29.9115 C 112.293 30.697 114.355 30.1916 114.355 31.7015 C 114.355 32.6633 113.552 33.12 112.628 33.12 C 112.053 33.12 111.547 32.9557 111.124 32.5783 L 111.825 31.8354 C 112.028 32.0911 112.356 32.2435 112.685 32.2435 C 113.008 32.2435 113.368 32.0973 113.368 31.7929 C 113.368 31.0013 111.269 31.4276 111.269 29.9909 C 111.269 29.0717 112.097 28.5906 112.976 28.5906 C 113.482 28.5906 113.969 28.7183 114.348 29.0412 L 113.672 29.7533 Z"
       id="path3" />
    <path
       d="M 19.7019 23.1944 L 23.3651 23.1944 L 26.3901 9.48497 L 26.4456 9.48497 L 29.2485 23.1944 L 32.9395 23.1944 L 37.3244 3.15753 L 33.7444 3.15753 L 31.0802 16.2565 L 31.0247 16.2565 L 28.2495 3.15753 L 24.5585 3.15753 L 21.811 16.2565 L 21.7555 16.2565 L 19.0636 3.15753 L 15.5113 3.15753 L 19.7019 23.1944 Z M 38.5452 16.756 C 38.5452 21.6958 41.1539 23.472 44.8727 23.472 C 48.5914 23.472 51.2001 21.6958 51.2001 16.756 L 51.2001 9.59598 C 51.2001 4.65613 48.5914 2.88 44.8727 2.88 C 41.1539 2.88 38.5452 4.65613 38.5452 9.59598 L 38.5452 16.756 Z M 42.375 9.09645 C 42.375 6.87629 43.3463 6.26575 44.8727 6.26575 C 46.399 6.26575 47.3704 6.87629 47.3704 9.09645 L 47.3704 17.2555 C 47.3704 19.4757 46.399 20.0862 44.8727 20.0862 C 43.3463 20.0862 42.375 19.4757 42.375 17.2555 L 42.375 9.09645 Z M 53.4203 16.756 C 53.4203 21.6958 56.029 23.472 59.7477 23.472 C 63.4665 23.472 66.0752 21.6958 66.0752 16.756 L 66.0752 9.59598 C 66.0752 4.65613 63.4665 2.88 59.7477 2.88 C 56.029 2.88 53.4203 4.65613 53.4203 9.59598 L 53.4203 16.756 Z M 57.25 9.09645 C 57.25 6.87629 58.2214 6.26575 59.7477 6.26575 C 61.2741 6.26575 62.2454 6.87629 62.2454 9.09645 L 62.2454 17.2555 C 62.2454 19.4757 61.2741 20.0862 59.7477 20.0862 C 58.2214 20.0862 57.25 19.4757 57.25 17.2555 L 57.25 9.09645 Z M 68.4896 23.1944 L 73.818 23.1944 C 78.2028 23.1944 80.6449 21.3073 80.8114 16.2565 L 80.8114 10.0955 C 80.6449 5.04466 78.2028 3.15753 73.818 3.15753 L 68.4896 3.15753 L 68.4896 23.1944 Z M 72.3194 6.54326 L 73.6514 6.54326 C 76.0381 6.54326 76.9817 7.70885 76.9817 10.5395 L 76.9817 15.8124 C 76.9817 18.8096 75.7606 19.8087 73.6514 19.8087 L 72.3194 19.8087 L 72.3194 6.54326 Z M 86.9169 23.1944 L 86.9169 14.5358 L 91.7457 14.5358 L 91.7457 11.1501 L 86.9169 11.1501 L 86.9169 6.54326 L 93.0778 6.54326 L 93.0778 3.15753 L 83.0871 3.15753 L 83.0871 23.1944 L 86.9169 23.1944 Z M 99.4603 23.1944 L 99.4603 3.15753 L 95.6306 3.15753 L 95.6306 23.1944 L 99.4603 23.1944 Z M 105.594 23.1944 L 105.594 10.262 L 105.649 10.262 L 111.505 23.1944 L 115.168 23.1944 L 115.168 3.15753 L 111.671 3.15753 L 111.671 15.0354 L 111.616 15.0354 L 106.287 3.15753 L 102.097 3.15753 L 102.097 23.1944 L 105.594 23.1944 Z M 128.489 23.1944 L 128.489 19.8087 L 121.551 19.8087 L 121.551 14.5358 L 126.629 14.5358 L 126.629 11.1501 L 121.551 11.1501 L 121.551 6.54326 L 128.211 6.54326 L 128.211 3.15753 L 117.721 3.15753 L 117.721 23.1944 L 128.489 23.1944 Z"
       id="path4" />
  </g>
</svg>
