<svg class="class-icon" xmlns="http://www.w3.org/2000/svg" xmlns:xlink="http://www.w3.org/1999/xlink" viewBox="15.92 16.99 110.02 110.02">
<path fill-rule="nonzero" fill="rgb(13.729858%, 12.159729%, 12.548828%)" fill-opacity="1" d="M 51.78125 18.589844 L 41.023438 22.382812 L 41.4375 23.558594 L 51.8125 19.894531 L 63.839844 23.566406 L 64.203125 22.378906 "></path>
<path fill-rule="nonzero" fill="rgb(13.729858%, 12.159729%, 12.548828%)" fill-opacity="1" d="M 52.003906 19.957031 L 63.839844 23.566406 L 64.203125 22.378906 L 52.003906 18.65625 "></path>
<path fill-rule="nonzero" fill="rgb(100%, 100%, 100%)" fill-opacity="1" d="M 43.925781 22.144531 L 41.4375 23.554688 L 43.199219 25.769531 L 52.3125 23.800781 L 52.523438 19.449219 L 51.484375 19.449219 "></path>
<path fill-rule="nonzero" fill="rgb(91.363525%, 91.20636%, 91.246033%)" fill-opacity="1" d="M 52.003906 24.628906 L 51.796875 18.929688 L 63.839844 23.566406 L 61.121094 26.078125 "></path>
<path fill-rule="nonzero" fill="rgb(13.729858%, 12.159729%, 12.548828%)" fill-opacity="1" d="M 52.191406 26.804688 L 33.421875 32.785156 L 33.421875 87.039062 L 53 87.03125 L 57.472656 34.886719 "></path>
<path fill-rule="nonzero" fill="rgb(13.729858%, 12.159729%, 12.548828%)" fill-opacity="1" d="M 71.246094 33.613281 L 52.171875 26.796875 L 53 87.28125 L 71.246094 87.273438 "></path>
<path fill-rule="nonzero" fill="rgb(13.729858%, 12.159729%, 12.548828%)" fill-opacity="1" d="M 52.191406 21.828125 L 42.535156 24.902344 L 42.535156 88.277344 L 53 88.273438 L 57.472656 29.90625 "></path>
<path fill-rule="nonzero" fill="rgb(13.729858%, 12.159729%, 12.548828%)" fill-opacity="1" d="M 62.425781 24.871094 L 52.171875 21.824219 L 53 88.113281 L 62.425781 88.109375 "></path>
<path fill-rule="nonzero" fill="rgb(100%, 100%, 100%)" fill-opacity="1" d="M 36.605469 35.828125 L 36.605469 72.605469 L 38.8125 72.605469 L 38.8125 35.230469 "></path>
<path fill-rule="nonzero" fill="rgb(100%, 100%, 100%)" fill-opacity="1" d="M 41.71875 34.441406 L 41.71875 72.1875 L 43.929688 72.1875 L 43.929688 33.839844 "></path>
<path fill-rule="nonzero" fill="rgb(100%, 100%, 100%)" fill-opacity="1" d="M 46.972656 27.210938 L 46.972656 71.773438 L 49.183594 71.359375 L 49.183594 26.609375 "></path>
<path fill-rule="nonzero" fill="rgb(91.363525%, 91.20636%, 91.246033%)" fill-opacity="1" d="M 68.257812 35.828125 L 68.257812 85.046875 L 66.050781 85.046875 L 66.050781 35.230469 "></path>
<path fill-rule="nonzero" fill="rgb(91.363525%, 91.20636%, 91.246033%)" fill-opacity="1" d="M 63.144531 34.441406 L 63.144531 84.632812 L 60.933594 84.632812 L 60.933594 33.839844 "></path>
<path fill-rule="nonzero" fill="rgb(91.363525%, 91.20636%, 91.246033%)" fill-opacity="1" d="M 57.890625 27.210938 L 57.890625 83.800781 L 55.679688 83.800781 L 55.679688 26.609375 "></path>
<path fill="none" stroke-width="10.4778" stroke-linecap="butt" stroke-linejoin="miter" stroke="rgb(13.729858%, 12.159729%, 12.548828%)" stroke-opacity="1" stroke-miterlimit="10" d="M 346.015625 1042.460938 L 501.40625 1081.835938 M 346.015625 1001.015625 L 501.40625 1036.210938 M 346.015625 955.390625 L 501.40625 990.585938 M 346.015625 913.90625 L 501.40625 944.960938 M 346.015625 868.320312 L 501.40625 899.375 M 346.015625 826.796875 L 501.40625 853.75 M 346.015625 785.351562 L 501.40625 808.125 M 346.015625 748.007812 L 501.40625 770.820312 M 346.015625 710.703125 L 501.40625 733.476562 M 346.015625 710.703125 L 501.40625 733.476562 M 346.015625 669.257812 L 501.40625 687.851562 M 346.015625 627.773438 L 501.40625 646.40625 M 346.015625 586.289062 L 501.40625 600.78125 M 700.46875 1042.460938 L 545.078125 1081.835938 M 700.46875 1001.015625 L 545.078125 1036.210938 M 700.46875 959.53125 L 545.039062 990.585938 M 700.46875 918.046875 L 545.039062 944.960938 M 700.46875 876.601562 L 545.039062 899.375 M 700.46875 835.117188 L 545.039062 853.75 M 700.46875 793.671875 L 545.039062 808.125 M 700.46875 752.1875 L 545.039062 770.820312 M 700.46875 752.1875 L 545.039062 774.960938 M 700.46875 710.703125 L 545.039062 733.476562 M 700.46875 752.1875 L 545.039062 774.960938 M 700.46875 710.703125 L 545.039062 733.476562 M 700.46875 669.257812 L 545.039062 687.851562 M 700.46875 627.773438 L 545.039062 646.40625 M 700.46875 586.289062 L 545.039062 600.78125 " transform="matrix(0.1, 0, 0, -0.1, 0, 144)"></path>
<path fill-rule="nonzero" fill="rgb(13.729858%, 12.159729%, 12.548828%)" fill-opacity="1" d="M 90.890625 63.503906 L 110.769531 69.214844 L 110.769531 88.714844 L 86.730469 88.730469 L 90.199219 67.089844 "></path>
<path fill-rule="nonzero" fill="rgb(13.729858%, 12.159729%, 12.548828%)" fill-opacity="1" d="M 90.875 63.496094 L 30.964844 74.027344 L 30.964844 88.5 L 90.875 88.476562 "></path>
<path fill-rule="nonzero" fill="rgb(100%, 100%, 100%)" fill-opacity="1" d="M 87.292969 88.917969 L 34.121094 87.675781 L 34.121094 83.804688 L 87.292969 80.074219 "></path>
<path fill-rule="nonzero" fill="rgb(100%, 100%, 100%)" fill-opacity="1" d="M 87.019531 69.292969 L 34.117188 76.761719 L 34.117188 80.210938 L 87.019531 76.066406 "></path>
<path fill-rule="nonzero" fill="rgb(91.363525%, 91.20636%, 91.246033%)" fill-opacity="1" d="M 87.433594 67.636719 L 108.703125 72.0625 L 108.703125 76.34375 L 87.433594 75.234375 "></path>
<path fill-rule="nonzero" fill="rgb(91.363525%, 91.20636%, 91.246033%)" fill-opacity="1" d="M 87.433594 79.664062 L 108.703125 79.941406 L 108.703125 84.636719 L 87.433594 85.601562 "></path>
<path fill-rule="nonzero" fill="rgb(13.729858%, 12.159729%, 12.548828%)" fill-opacity="1" d="M 104.972656 63.402344 L 90.890625 59.359375 L 90.199219 62.945312 L 86.730469 88.730469 L 104.972656 88.71875 "></path>
<path fill-rule="nonzero" fill="rgb(13.729858%, 12.159729%, 12.548828%)" fill-opacity="1" d="M 73.480469 62.40625 L 73.480469 88.484375 L 90.875 88.476562 L 90.875 59.347656 "></path>
<path fill="none" stroke-width="3.49262" stroke-linecap="butt" stroke-linejoin="miter" stroke="rgb(13.729858%, 12.159729%, 12.548828%)" stroke-opacity="1" stroke-miterlimit="10" d="M 364.6875 688.984375 L 364.6875 545.351562 M 393.671875 688.984375 L 393.671875 545.351562 M 426.835938 688.984375 L 426.835938 545.351562 M 460.039062 688.984375 L 460.039062 545.351562 M 493.203125 751.171875 L 493.203125 545.351562 M 530.507812 722.148438 L 530.507812 545.351562 M 571.992188 730.429688 L 571.992188 545.351562 M 613.476562 730.429688 L 613.476562 545.351562 M 654.921875 730.429688 L 654.921875 545.351562 M 696.40625 734.570312 L 696.40625 545.351562 " transform="matrix(0.1, 0, 0, -0.1, 0, 144)"></path>
<path fill-rule="nonzero" fill="rgb(100%, 100%, 100%)" fill-opacity="1" d="M 87.292969 88.640625 L 76.796875 88.640625 L 76.796875 65.574219 L 87.292969 63.914062 "></path>
<path fill-rule="nonzero" fill="rgb(91.363525%, 91.20636%, 91.246033%)" fill-opacity="1" d="M 93.800781 88.640625 L 101.808594 88.640625 L 101.808594 65.574219 L 93.800781 63.914062 "></path>
<path fill-rule="nonzero" fill="rgb(13.729858%, 12.159729%, 12.548828%)" fill-opacity="1" d="M 66.402344 83.402344 L 66.402344 85.109375 L 66.710938 85.070312 L 66.710938 83.363281 "></path>
<path fill-rule="nonzero" fill="rgb(13.729858%, 12.159729%, 12.548828%)" fill-opacity="1" d="M 50.230469 84.234375 L 50.230469 85.945312 L 50.539062 85.902344 L 50.539062 84.195312 "></path>
<path fill-rule="nonzero" fill="rgb(13.729858%, 12.159729%, 12.548828%)" fill-opacity="1" d="M 37.457031 84.699219 L 37.457031 85.976562 L 37.6875 85.949219 L 37.6875 84.667969 "></path>
<path fill="none" stroke-width="3.49262" stroke-linecap="butt" stroke-linejoin="miter" stroke="rgb(13.729858%, 12.159729%, 12.548828%)" stroke-opacity="1" stroke-miterlimit="10" d="M 814.921875 805 L 814.921875 537.03125 M 977.929688 805 L 977.929688 537.03125 " transform="matrix(0.1, 0, 0, -0.1, 0, 144)"></path>
<path fill-rule="nonzero" fill="rgb(13.729858%, 12.159729%, 12.548828%)" fill-opacity="1" d="M 26.691406 86.875 L 26.691406 91.324219 L 115.171875 91.324219 L 115.171875 86.875 L 26.691406 86.875 "></path>
<path fill-rule="nonzero" fill="rgb(13.729858%, 12.159729%, 12.548828%)" fill-opacity="1" d="M 55.46875 122.957031 C 55.46875 124.3125 56.265625 125.410156 57.992188 125.410156 C 59.71875 125.410156 60.515625 124.3125 60.515625 122.957031 L 60.515625 118.015625 C 60.515625 116.660156 59.71875 115.5625 57.992188 115.5625 C 56.265625 115.5625 55.46875 116.660156 55.46875 118.015625 Z M 57.113281 118.054688 C 57.113281 117.339844 57.328125 116.992188 57.992188 116.992188 C 58.65625 116.992188 58.867188 117.339844 58.867188 118.054688 L 58.867188 122.917969 C 58.867188 123.632812 58.65625 123.980469 57.992188 123.980469 C 57.328125 123.980469 57.113281 123.632812 57.113281 122.917969 Z M 63.753906 125.277344 L 63.753906 121.03125 L 65.957031 121.03125 L 65.957031 119.597656 L 63.753906 119.597656 L 63.753906 117.125 L 66.703125 117.125 L 66.703125 115.695312 L 62.109375 115.695312 L 62.109375 125.277344 Z M 69.648438 125.277344 L 69.648438 121.03125 L 71.851562 121.03125 L 71.851562 119.597656 L 69.648438 119.597656 L 69.648438 117.125 L 72.597656 117.125 L 72.597656 115.695312 L 68.003906 115.695312 L 68.003906 125.277344 Z M 75.769531 125.277344 L 75.769531 115.695312 L 74.125 115.695312 L 74.125 125.277344 Z M 82.554688 118.894531 L 82.554688 118.1875 C 82.554688 116.753906 81.757812 115.5625 80.113281 115.5625 C 78.386719 115.5625 77.589844 116.660156 77.589844 118.015625 L 77.589844 122.957031 C 77.589844 124.3125 78.386719 125.410156 80.113281 125.410156 C 81.757812 125.410156 82.554688 124.3125 82.554688 122.957031 L 82.554688 121.855469 L 80.910156 121.855469 L 80.910156 123.011719 C 80.910156 123.632812 80.710938 123.980469 80.113281 123.980469 C 79.449219 123.980469 79.234375 123.632812 79.234375 122.917969 L 79.234375 118.054688 C 79.234375 117.339844 79.449219 116.992188 80.113281 116.992188 C 80.539062 116.992188 80.910156 117.339844 80.910156 118.148438 L 80.910156 118.894531 Z M 88.824219 125.277344 L 88.824219 123.847656 L 85.875 123.847656 L 85.875 121.03125 L 88 121.03125 L 88 119.597656 L 85.875 119.597656 L 85.875 117.125 L 88.636719 117.125 L 88.636719 115.695312 L 84.230469 115.695312 L 84.230469 125.277344 L 88.824219 125.277344 "></path>
<path fill-rule="nonzero" fill="rgb(13.729858%, 12.159729%, 12.548828%)" fill-opacity="1" d="M 51.550781 102.390625 C 51.40625 101.039062 50.609375 100.070312 49.269531 100.070312 C 47.648438 100.070312 46.71875 100.933594 46.71875 102.457031 C 46.71875 105.207031 50.066406 105.710938 50.066406 107.613281 C 50.066406 108.183594 49.679688 108.488281 49.109375 108.488281 C 48.578125 108.488281 48.191406 108.011719 48.125 107.039062 L 46.558594 107.265625 C 46.625 108.699219 47.5 109.921875 49.027344 109.921875 C 50.570312 109.921875 51.628906 109.042969 51.628906 107.464844 C 51.628906 104.863281 48.285156 104.078125 48.285156 102.445312 C 48.285156 101.847656 48.578125 101.503906 49.109375 101.503906 C 49.480469 101.503906 49.917969 101.742188 49.984375 102.566406 Z M 52.878906 107.371094 C 52.878906 109.019531 53.835938 109.921875 55.402344 109.921875 C 56.96875 109.921875 57.925781 109.019531 57.925781 107.371094 L 57.925781 100.203125 L 56.28125 100.203125 L 56.28125 107.4375 C 56.28125 108.144531 56 108.488281 55.402344 108.488281 C 54.804688 108.488281 54.523438 108.144531 54.523438 107.4375 L 54.523438 100.203125 L 52.878906 100.203125 Z M 61.164062 105.484375 L 61.695312 105.484375 C 62.679688 105.484375 63.050781 105.976562 63.050781 106.960938 C 63.050781 107.929688 62.730469 108.433594 61.855469 108.433594 L 61.164062 108.433594 Z M 61.164062 101.554688 L 61.789062 101.554688 C 62.519531 101.554688 62.863281 102.019531 62.863281 102.910156 C 62.863281 103.707031 62.386719 104.132812 61.761719 104.132812 L 61.164062 104.132812 Z M 59.519531 109.789062 L 62.121094 109.789062 C 63.992188 109.789062 64.695312 108.59375 64.695312 107.015625 C 64.695312 105.777344 64.207031 105.113281 63.371094 104.742188 C 64.164062 104.425781 64.511719 103.5625 64.511719 102.738281 C 64.511719 101.105469 63.726562 100.203125 61.960938 100.203125 L 59.519531 100.203125 Z M 66.160156 107.371094 C 66.160156 109.019531 67.113281 109.921875 68.679688 109.921875 C 70.246094 109.921875 71.203125 109.019531 71.203125 107.371094 L 71.203125 100.203125 L 69.558594 100.203125 L 69.558594 107.4375 C 69.558594 108.144531 69.277344 108.488281 68.679688 108.488281 C 68.082031 108.488281 67.804688 108.144531 67.804688 107.4375 L 67.804688 100.203125 L 66.160156 100.203125 Z M 74.441406 101.554688 L 75.027344 101.554688 C 75.917969 101.554688 76.25 101.886719 76.25 103.03125 C 76.25 104.171875 75.917969 104.503906 75.027344 104.503906 L 74.441406 104.503906 Z M 74.441406 105.855469 C 74.734375 105.855469 75.082031 105.84375 75.292969 105.816406 L 76.460938 109.789062 L 78.132812 109.789062 L 76.742188 105.445312 C 77.296875 105.195312 77.894531 104.570312 77.894531 103.03125 C 77.894531 100.984375 76.953125 100.203125 75.105469 100.203125 L 72.796875 100.203125 L 72.796875 109.789062 L 74.441406 109.789062 Z M 81.082031 105.484375 L 81.613281 105.484375 C 82.597656 105.484375 82.96875 105.976562 82.96875 106.960938 C 82.96875 107.929688 82.648438 108.433594 81.773438 108.433594 L 81.082031 108.433594 Z M 81.082031 101.554688 L 81.707031 101.554688 C 82.4375 101.554688 82.78125 102.019531 82.78125 102.910156 C 82.78125 103.707031 82.304688 104.132812 81.679688 104.132812 L 81.082031 104.132812 Z M 79.4375 109.789062 L 82.039062 109.789062 C 83.910156 109.789062 84.613281 108.59375 84.613281 107.015625 C 84.613281 105.777344 84.121094 105.113281 83.285156 104.742188 C 84.082031 104.425781 84.425781 103.5625 84.425781 102.738281 C 84.425781 101.105469 83.644531 100.203125 81.878906 100.203125 L 79.4375 100.203125 Z M 88.214844 102.113281 L 88.238281 102.113281 L 88.890625 106.230469 L 87.5625 106.230469 Z M 87.324219 107.664062 L 89.128906 107.664062 L 89.421875 109.789062 L 91.015625 109.789062 L 89.246094 100.203125 L 87.203125 100.203125 L 85.4375 109.789062 L 87.03125 109.789062 Z M 93.457031 109.789062 L 93.457031 103.800781 L 93.484375 103.800781 L 95.582031 109.789062 L 97.015625 109.789062 L 97.015625 100.203125 L 95.53125 100.203125 L 95.53125 105.6875 L 95.503906 105.6875 L 93.496094 100.203125 L 91.972656 100.203125 L 91.972656 109.789062 L 93.457031 109.789062 "></path>
</svg>